<?xml version="1.0" encoding="UTF-8"?>
<svg width="600px" height="93px" viewBox="0 0 600 93" version="1.1" xmlns="http://www.w3.org/2000/svg" xmlns:xlink="http://www.w3.org/1999/xlink">
    <!-- Generator: Sketch 48.2 (47327) - http://www.bohemiancoding.com/sketch -->
    <title>logo-vector copy 2</title>
    <desc>Created with Sketch.</desc>
    <defs></defs>
    <g id="Exports" stroke="none" stroke-width="1" fill="none" fill-rule="evenodd">
        <g id="logo-vector-copy-2" fill="#3E5665">
            <path d="M60.9511233,35.1213434 L50.3974795,35.1213434 L50.3974795,66.304442 L41.5536438,66.304442 L41.5536438,35.1213434 L31,35.1213434 L31,27.340195 L60.9511233,27.340195 L60.9511233,35.1213434 Z M90.7253699,66.304442 L82.2352877,66.304442 L82.2352877,47.4658722 C82.2352877,46.1787649 81.6456986,45.4182015 80.171726,45.4182015 C78.6387945,45.4182015 75.8087671,46.588299 73.9810411,47.524377 L73.9810411,66.304442 L65.4909589,66.304442 L65.4909589,26.1700975 L73.8631233,25 L73.8631233,39.8602384 C77.3416986,38.2806067 80.820274,37.227519 84.1219726,37.227519 C89.0155616,37.227519 90.7253699,40.8548212 90.7253699,46.3542795 L90.7253699,66.304442 Z M120.558575,55.0130011 L105.111342,55.0130011 L105.111342,55.8320693 C105.111342,59.1083424 106.408438,59.9859155 110.299726,59.9859155 C112.952877,59.9859155 116.490411,59.5178765 119.025644,58.7573131 L120.263781,65.0758397 C117.669589,66.0119177 113.483507,66.8894908 109.474301,66.8894908 C100.158795,66.8894908 96.6212603,62.3261105 96.6212603,55.3055255 L96.6212603,48.6359697 C96.6212603,42.4929577 99.3923288,37.227519 108.943671,37.227519 C118.495014,37.227519 120.558575,42.843987 120.558575,49.0455038 L120.558575,55.0130011 Z M112.540164,48.6944745 L112.540164,47.4658722 C112.540164,45.4767064 111.950575,43.8385699 109.00263,43.8385699 C106.054685,43.8385699 105.111342,45.4767064 105.111342,47.4658722 L105.111342,48.6944745 L112.540164,48.6944745 Z M148.26926,66.304442 L139.425425,66.304442 L139.425425,27.340195 L148.26926,27.340195 L148.26926,66.304442 Z M181.463123,66.304442 L172.973041,66.304442 L172.973041,47.4658722 C172.973041,46.1787649 172.383452,45.4182015 170.909479,45.4182015 C169.376548,45.4182015 166.546521,46.4712893 164.718795,47.4658722 L164.718795,66.304442 L156.228712,66.304442 L156.228712,37.8125677 L162.537315,37.8125677 L163.421699,39.9772481 C166.959233,38.2806067 171.558027,37.227519 174.859726,37.227519 C179.753315,37.227519 181.463123,40.8548212 181.463123,46.3542795 L181.463123,66.304442 Z M204.575014,65.836403 C202.688329,66.4799567 200.388932,66.8894908 198.443288,66.8894908 C192.96011,66.8894908 189.776329,64.8418202 189.776329,59.5763814 L189.776329,44.5991333 L185.885041,44.5991333 L185.885041,37.8125677 L189.776329,37.8125677 L189.776329,30.9674973 L198.266411,29.7973998 L198.266411,37.8125677 L204.810849,37.8125677 L204.339178,44.5991333 L198.266411,44.5991333 L198.266411,58.4062839 C198.266411,59.5763814 198.973918,59.9859155 200.035178,59.9859155 C200.978521,59.9859155 202.334575,59.8689057 203.572712,59.4593716 L204.575014,65.836403 Z M232.521534,55.0130011 L217.074301,55.0130011 L217.074301,55.8320693 C217.074301,59.1083424 218.371397,59.9859155 222.262685,59.9859155 C224.915836,59.9859155 228.45337,59.5178765 230.988603,58.7573131 L232.22674,65.0758397 C229.632548,66.0119177 225.446466,66.8894908 221.43726,66.8894908 C212.121753,66.8894908 208.584219,62.3261105 208.584219,55.3055255 L208.584219,48.6359697 C208.584219,42.4929577 211.355288,37.227519 220.90663,37.227519 C230.457973,37.227519 232.521534,42.843987 232.521534,49.0455038 L232.521534,55.0130011 Z M224.503123,48.6944745 L224.503123,47.4658722 C224.503123,45.4767064 223.913534,43.8385699 220.965589,43.8385699 C218.017644,43.8385699 217.074301,45.4767064 217.074301,47.4658722 L217.074301,48.6944745 L224.503123,48.6944745 Z M254.808,45.184182 C252.272767,46.1787649 249.030027,47.6413868 247.202301,48.928494 L247.202301,66.304442 L238.712219,66.304442 L238.712219,37.8125677 L245.787288,37.8125677 L246.376877,40.5622969 C248.145644,39.3921993 251.801096,37.695558 254.100493,37.227519 L254.808,45.184182 Z M284.287452,66.304442 L275.79737,66.304442 L275.79737,47.4658722 C275.79737,46.1787649 275.207781,45.4182015 273.733808,45.4182015 C272.200877,45.4182015 269.370849,46.4712893 267.543123,47.4658722 L267.543123,66.304442 L259.053041,66.304442 L259.053041,37.8125677 L265.361644,37.8125677 L266.246027,39.9772481 C269.783562,38.2806067 274.382356,37.227519 277.684055,37.227519 C282.577644,37.227519 284.287452,40.8548212 284.287452,46.3542795 L284.287452,66.304442 Z M328.742466,66.304442 L304.038685,66.304442 L304.038685,27.340195 L328.742466,27.340195 L328.742466,35.1213434 L312.882521,35.1213434 L312.882521,42.2589382 L327.504329,42.2589382 L327.504329,50.0400867 L312.882521,50.0400867 L312.882521,58.5232936 L328.742466,58.5232936 L328.742466,66.304442 Z M359.872767,37.8125677 L350.969973,51.9707476 L360.108603,66.304442 L351.559562,66.304442 L346.489096,58.4062839 L341.41863,66.304442 L332.869589,66.304442 L342.008219,51.9707476 L333.105425,37.8125677 L341.477589,37.8125677 L346.489096,45.5937161 L351.500603,37.8125677 L359.872767,37.8125677 Z M390.295562,47.7583965 L390.295562,56.3586132 C390.295562,63.0866739 387.347616,66.8894908 380.626301,66.8894908 C378.267945,66.8894908 375.261041,66.5384615 373.315397,66.0704225 L373.315397,77.8299025 L364.825315,79 L364.825315,37.8125677 L371.487671,37.8125677 L372.372055,40.0942579 C374.376658,38.8071506 378.091068,37.227519 381.21589,37.227519 C387.052822,37.227519 390.295562,40.7963164 390.295562,47.7583965 Z M373.315397,46.7638137 L373.315397,58.8743229 C374.78937,59.2253521 376.970849,59.5763814 378.739616,59.5763814 C380.980055,59.5763814 381.805479,58.2307692 381.805479,56.3586132 L381.805479,47.7583965 C381.805479,45.7692308 380.980055,44.5406284 378.739616,44.5406284 C376.793973,44.5406284 374.553534,45.7107259 373.315397,46.7638137 Z M418.949589,55.0130011 L403.502356,55.0130011 L403.502356,55.8320693 C403.502356,59.1083424 404.799452,59.9859155 408.69074,59.9859155 C411.34389,59.9859155 414.881425,59.5178765 417.416658,58.7573131 L418.654795,65.0758397 C416.060603,66.0119177 411.874521,66.8894908 407.865315,66.8894908 C398.549808,66.8894908 395.012274,62.3261105 395.012274,55.3055255 L395.012274,48.6359697 C395.012274,42.4929577 397.783342,37.227519 407.334685,37.227519 C416.886027,37.227519 418.949589,42.843987 418.949589,49.0455038 L418.949589,55.0130011 Z M410.931178,48.6944745 L410.931178,47.4658722 C410.931178,45.4767064 410.341589,43.8385699 407.393644,43.8385699 C404.445699,43.8385699 403.502356,45.4767064 403.502356,47.4658722 L403.502356,48.6944745 L410.931178,48.6944745 Z M441.236055,45.184182 C438.700822,46.1787649 435.458082,47.6413868 433.630356,48.928494 L433.630356,66.304442 L425.140274,66.304442 L425.140274,37.8125677 L432.215342,37.8125677 L432.804932,40.5622969 C434.573699,39.3921993 438.229151,37.695558 440.528548,37.227519 L441.236055,45.184182 Z M453.971178,34.2437703 L445.481096,34.2437703 L445.481096,25.2925244 L453.971178,25.2925244 L453.971178,34.2437703 Z M453.971178,66.304442 L445.481096,66.304442 L445.481096,37.8125677 L453.971178,37.8125677 L453.971178,66.304442 Z M484.099178,55.0130011 L468.651945,55.0130011 L468.651945,55.8320693 C468.651945,59.1083424 469.949041,59.9859155 473.840329,59.9859155 C476.493479,59.9859155 480.031014,59.5178765 482.566247,58.7573131 L483.804384,65.0758397 C481.210192,66.0119177 477.02411,66.8894908 473.014904,66.8894908 C463.699397,66.8894908 460.161863,62.3261105 460.161863,55.3055255 L460.161863,48.6359697 C460.161863,42.4929577 462.932932,37.227519 472.484274,37.227519 C482.035616,37.227519 484.099178,42.843987 484.099178,49.0455038 L484.099178,55.0130011 Z M476.080767,48.6944745 L476.080767,47.4658722 C476.080767,45.4767064 475.491178,43.8385699 472.543233,43.8385699 C469.595288,43.8385699 468.651945,45.4767064 468.651945,47.4658722 L468.651945,48.6944745 L476.080767,48.6944745 Z M515.524274,66.304442 L507.034192,66.304442 L507.034192,47.4658722 C507.034192,46.1787649 506.444603,45.4182015 504.97063,45.4182015 C503.437699,45.4182015 500.607671,46.4712893 498.779945,47.4658722 L498.779945,66.304442 L490.289863,66.304442 L490.289863,37.8125677 L496.598466,37.8125677 L497.482849,39.9772481 C501.020384,38.2806067 505.619178,37.227519 508.920877,37.227519 C513.814466,37.227519 515.524274,40.8548212 515.524274,46.3542795 L515.524274,66.304442 Z M529.615452,48.6944745 L529.615452,55.4225352 C529.615452,58.347779 530.853589,59.6933911 534.273205,59.6933911 C536.454685,59.6933911 538.105534,59.4593716 540.169096,58.9913326 L541.230356,66.0119177 C538.34137,66.6554713 536.277808,66.8894908 534.273205,66.8894908 C524.957699,66.8894908 521.12537,63.4377031 521.12537,55.3055255 L521.12537,48.8114843 C521.12537,40.6793066 524.957699,37.227519 534.273205,37.227519 C536.277808,37.227519 538.34137,37.4615385 541.230356,38.1050921 L540.169096,45.1256771 C538.400329,44.716143 535.924055,44.4236186 534.273205,44.4236186 C530.853589,44.4236186 529.615452,45.7692308 529.615452,48.6944745 Z M569,55.0130011 L553.552767,55.0130011 L553.552767,55.8320693 C553.552767,59.1083424 554.849863,59.9859155 558.741151,59.9859155 C561.394301,59.9859155 564.931836,59.5178765 567.467068,58.7573131 L568.705205,65.0758397 C566.111014,66.0119177 561.924932,66.8894908 557.915726,66.8894908 C548.600219,66.8894908 545.062685,62.3261105 545.062685,55.3055255 L545.062685,48.6359697 C545.062685,42.4929577 547.833753,37.227519 557.385096,37.227519 C566.936438,37.227519 569,42.843987 569,49.0455038 L569,55.0130011 Z M560.981589,48.6944745 L560.981589,47.4658722 C560.981589,45.4767064 560.392,43.8385699 557.444055,43.8385699 C554.49611,43.8385699 553.552767,45.4767064 553.552767,47.4658722 L553.552767,48.6944745 L560.981589,48.6944745 Z" id="The-Intern-Experienc"></path>
        </g>
    </g>
</svg>