<?xml version="1.0" encoding="UTF-8"?>
<svg width="600px" height="286px" viewBox="0 0 600 286" version="1.1" xmlns="http://www.w3.org/2000/svg" xmlns:xlink="http://www.w3.org/1999/xlink">
    <!-- Generator: Sketch 48.2 (47327) - http://www.bohemiancoding.com/sketch -->
    <title>logo-vector</title>
    <desc>Created with Sketch.</desc>
    <defs>
        <polygon id="path-1" points="0.06 0.902 535.596 0.902 535.596 168.967 0.06 168.967"></polygon>
        <polygon id="path-3" points="0.346 0.04 50.545521 0.04 50.545521 63.609 0.346 63.609"></polygon>
    </defs>
    <g id="Exports" stroke="none" stroke-width="1" fill="none" fill-rule="evenodd">
        <g id="logo-vector">
            <g id="Group" transform="translate(32.000000, 16.000000)">
                <path d="M30.9585,211.553 L20.3975,211.553 L20.3975,243 L11.5475,243 L11.5475,211.553 L0.9865,211.553 L0.9865,203.706 L30.9585,203.706 L30.9585,211.553 Z M60.7535,243 L52.2575,243 L52.2575,224.002 C52.2575,222.704 51.6675,221.937 50.1925,221.937 C48.6585,221.937 45.8265,223.117 43.9975,224.061 L43.9975,243 L35.5015,243 L35.5015,202.526 L43.8795,201.346 L43.8795,216.332 C47.3605,214.739 50.8415,213.677 54.1455,213.677 C59.0425,213.677 60.7535,217.335 60.7535,222.881 L60.7535,243 Z M90.6075,231.613 L75.1495,231.613 L75.1495,232.439 C75.1495,235.743 76.4475,236.628 80.3415,236.628 C82.9965,236.628 86.5365,236.156 89.0735,235.389 L90.3125,241.761 C87.7165,242.705 83.5275,243.59 79.5155,243.59 C70.1935,243.59 66.6535,238.988 66.6535,231.908 L66.6535,225.182 C66.6535,218.987 69.4265,213.677 78.9845,213.677 C88.5425,213.677 90.6075,219.341 90.6075,225.595 L90.6075,231.613 Z M82.5835,225.241 L82.5835,224.002 C82.5835,221.996 81.9935,220.344 79.0435,220.344 C76.0935,220.344 75.1495,221.996 75.1495,224.002 L75.1495,225.241 L82.5835,225.241 Z M118.3375,243 L109.4875,243 L109.4875,203.706 L118.3375,203.706 L118.3375,243 Z M151.5545,243 L143.0585,243 L143.0585,224.002 C143.0585,222.704 142.4685,221.937 140.9935,221.937 C139.4595,221.937 136.6275,222.999 134.7985,224.002 L134.7985,243 L126.3025,243 L126.3025,214.267 L132.6155,214.267 L133.5005,216.45 C137.0405,214.739 141.6425,213.677 144.9465,213.677 C149.8435,213.677 151.5545,217.335 151.5545,222.881 L151.5545,243 Z M174.6825,242.528 C172.7945,243.177 170.4935,243.59 168.5465,243.59 C163.0595,243.59 159.8735,241.525 159.8735,236.215 L159.8735,221.111 L155.9795,221.111 L155.9795,214.267 L159.8735,214.267 L159.8735,207.364 L168.3695,206.184 L168.3695,214.267 L174.9185,214.267 L174.4465,221.111 L168.3695,221.111 L168.3695,235.035 C168.3695,236.215 169.0775,236.628 170.1395,236.628 C171.0835,236.628 172.4405,236.51 173.6795,236.097 L174.6825,242.528 Z M202.6485,231.613 L187.1905,231.613 L187.1905,232.439 C187.1905,235.743 188.4885,236.628 192.3825,236.628 C195.0375,236.628 198.5775,236.156 201.1145,235.389 L202.3535,241.761 C199.7575,242.705 195.5685,243.59 191.5565,243.59 C182.2345,243.59 178.6945,238.988 178.6945,231.908 L178.6945,225.182 C178.6945,218.987 181.4675,213.677 191.0255,213.677 C200.5835,213.677 202.6485,219.341 202.6485,225.595 L202.6485,231.613 Z M194.6245,225.241 L194.6245,224.002 C194.6245,221.996 194.0345,220.344 191.0845,220.344 C188.1345,220.344 187.1905,221.996 187.1905,224.002 L187.1905,225.241 L194.6245,225.241 Z M224.9505,221.701 C222.4135,222.704 219.1685,224.179 217.3395,225.477 L217.3395,243 L208.8435,243 L208.8435,214.267 L215.9235,214.267 L216.5135,217.04 C218.2835,215.86 221.9415,214.149 224.2425,213.677 L224.9505,221.701 Z M254.4505,243 L245.9545,243 L245.9545,224.002 C245.9545,222.704 245.3645,221.937 243.8895,221.937 C242.3555,221.937 239.5235,222.999 237.6945,224.002 L237.6945,243 L229.1985,243 L229.1985,214.267 L235.5115,214.267 L236.3965,216.45 C239.9365,214.739 244.5385,213.677 247.8425,213.677 C252.7395,213.677 254.4505,217.335 254.4505,222.881 L254.4505,243 Z M298.9365,243 L274.2155,243 L274.2155,203.706 L298.9365,203.706 L298.9365,211.553 L283.0655,211.553 L283.0655,218.751 L297.6975,218.751 L297.6975,226.598 L283.0655,226.598 L283.0655,235.153 L298.9365,235.153 L298.9365,243 Z M330.0885,214.267 L321.1795,228.545 L330.3245,243 L321.7695,243 L316.6955,235.035 L311.6215,243 L303.0665,243 L312.2115,228.545 L303.3025,214.267 L311.6805,214.267 L316.6955,222.114 L321.7105,214.267 L330.0885,214.267 Z M360.5325,224.297 L360.5325,232.97 C360.5325,239.755 357.5825,243.59 350.8565,243.59 C348.4965,243.59 345.4875,243.236 343.5405,242.764 L343.5405,254.623 L335.0445,255.803 L335.0445,214.267 L341.7115,214.267 L342.5965,216.568 C344.6025,215.27 348.3195,213.677 351.4465,213.677 C357.2875,213.677 360.5325,217.276 360.5325,224.297 Z M343.5405,223.294 L343.5405,235.507 C345.0155,235.861 347.1985,236.215 348.9685,236.215 C351.2105,236.215 352.0365,234.858 352.0365,232.97 L352.0365,224.297 C352.0365,222.291 351.2105,221.052 348.9685,221.052 C347.0215,221.052 344.7795,222.232 343.5405,223.294 Z M389.2065,231.613 L373.7485,231.613 L373.7485,232.439 C373.7485,235.743 375.0465,236.628 378.9405,236.628 C381.5955,236.628 385.1355,236.156 387.6725,235.389 L388.9115,241.761 C386.3155,242.705 382.1265,243.59 378.1145,243.59 C368.7925,243.59 365.2525,238.988 365.2525,231.908 L365.2525,225.182 C365.2525,218.987 368.0255,213.677 377.5835,213.677 C387.1415,213.677 389.2065,219.341 389.2065,225.595 L389.2065,231.613 Z M381.1825,225.241 L381.1825,224.002 C381.1825,221.996 380.5925,220.344 377.6425,220.344 C374.6925,220.344 373.7485,221.996 373.7485,224.002 L373.7485,225.241 L381.1825,225.241 Z M411.5085,221.701 C408.9715,222.704 405.7265,224.179 403.8975,225.477 L403.8975,243 L395.4015,243 L395.4015,214.267 L402.4815,214.267 L403.0715,217.04 C404.8415,215.86 408.4995,214.149 410.8005,213.677 L411.5085,221.701 Z M424.2525,210.668 L415.7565,210.668 L415.7565,201.641 L424.2525,201.641 L424.2525,210.668 Z M424.2525,243 L415.7565,243 L415.7565,214.267 L424.2525,214.267 L424.2525,243 Z M454.4015,231.613 L438.9435,231.613 L438.9435,232.439 C438.9435,235.743 440.2415,236.628 444.1355,236.628 C446.7905,236.628 450.3305,236.156 452.8675,235.389 L454.1065,241.761 C451.5105,242.705 447.3215,243.59 443.3095,243.59 C433.9875,243.59 430.4475,238.988 430.4475,231.908 L430.4475,225.182 C430.4475,218.987 433.2205,213.677 442.7785,213.677 C452.3365,213.677 454.4015,219.341 454.4015,225.595 L454.4015,231.613 Z M446.3775,225.241 L446.3775,224.002 C446.3775,221.996 445.7875,220.344 442.8375,220.344 C439.8875,220.344 438.9435,221.996 438.9435,224.002 L438.9435,225.241 L446.3775,225.241 Z M485.8485,243 L477.3525,243 L477.3525,224.002 C477.3525,222.704 476.7625,221.937 475.2875,221.937 C473.7535,221.937 470.9215,222.999 469.0925,224.002 L469.0925,243 L460.5965,243 L460.5965,214.267 L466.9095,214.267 L467.7945,216.45 C471.3345,214.739 475.9365,213.677 479.2405,213.677 C484.1375,213.677 485.8485,217.335 485.8485,222.881 L485.8485,243 Z M499.9495,225.241 L499.9495,232.026 C499.9495,234.976 501.1885,236.333 504.6105,236.333 C506.7935,236.333 508.4455,236.097 510.5105,235.625 L511.5725,242.705 C508.6815,243.354 506.6165,243.59 504.6105,243.59 C495.2885,243.59 491.4535,240.109 491.4535,231.908 L491.4535,225.359 C491.4535,217.158 495.2885,213.677 504.6105,213.677 C506.6165,213.677 508.6815,213.913 511.5725,214.562 L510.5105,221.642 C508.7405,221.229 506.2625,220.934 504.6105,220.934 C501.1885,220.934 499.9495,222.291 499.9495,225.241 Z M539.3615,231.613 L523.9035,231.613 L523.9035,232.439 C523.9035,235.743 525.2015,236.628 529.0955,236.628 C531.7505,236.628 535.2905,236.156 537.8275,235.389 L539.0665,241.761 C536.4705,242.705 532.2815,243.59 528.2695,243.59 C518.9475,243.59 515.4075,238.988 515.4075,231.908 L515.4075,225.182 C515.4075,218.987 518.1805,213.677 527.7385,213.677 C537.2965,213.677 539.3615,219.341 539.3615,225.595 L539.3615,231.613 Z M531.3375,225.241 L531.3375,224.002 C531.3375,221.996 530.7475,220.344 527.7975,220.344 C524.8475,220.344 523.9035,221.996 523.9035,224.002 L523.9035,225.241 L531.3375,225.241 Z" id="The-Intern-Experienc" fill="#3E5665"></path>
                <g id="College_Hrzntl_COLOR_GREENYL">
                    <path d="M194.128,90.859 C193.428,90.859 192.86,91.427 192.86,92.128 C192.86,92.828 193.428,93.396 194.128,93.396 L534.328,93.396 C535.027,93.396 535.596,92.828 535.596,92.128 C535.596,91.427 535.027,90.859 534.328,90.859 L194.128,90.859" id="Fill-1" fill="#3C4E57"></path>
                    <path d="M194.017,187.459 C193.313,187.459 192.745,188.028 192.745,188.729 C192.745,189.431 193.313,190 194.017,190 L535.559,190 C536.262,190 536.83,189.431 536.83,188.729 C536.83,188.028 536.262,187.459 535.559,187.459 L194.017,187.459" id="Fill-2" fill="#3C4E57"></path>
                    <path d="M192.879,127.912 L192.879,153.186 C192.879,165.809 201.092,172.759 216.004,172.759 C222.004,172.759 227.477,172.164 233.759,170.829 C234.292,170.715 234.647,170.203 234.559,169.661 L232.658,157.755 L232.24,157.078 C232.236,157.078 231.468,156.902 231.468,156.902 C226.322,157.789 220.397,158.34 216.004,158.34 C209.79,158.34 208.574,155.651 208.574,151.003 L208.574,130.096 C208.574,125.448 209.79,122.757 216.004,122.757 C220.388,122.757 226.313,123.309 231.468,124.2 L232.24,124.02 L232.658,123.351 C232.658,123.347 234.559,111.437 234.559,111.437 C234.647,110.897 234.292,110.382 233.759,110.27 C227.465,108.934 221.988,108.338 216.004,108.338 C201.092,108.338 192.879,115.289 192.879,127.912" id="Fill-3" fill="#3C4E57"></path>
                    <path d="M256.849,152.004 L256.849,129.095 C256.849,124.709 259.806,122.487 265.642,122.487 C271.475,122.487 274.432,124.709 274.432,129.095 L274.432,152.004 C274.432,156.39 271.475,158.615 265.642,158.615 C259.806,158.615 256.849,156.39 256.849,152.004 Z M241.155,127.912 L241.155,153.186 C241.155,162.651 247.588,172.759 265.642,172.759 C283.695,172.759 290.126,162.651 290.126,153.186 L290.126,127.912 C290.126,118.449 283.695,108.338 265.642,108.338 C247.588,108.338 241.155,118.449 241.155,127.912 Z" id="Fill-4" fill="#3C4E57"></path>
                    <path d="M300.465,109.247 C299.897,109.247 299.435,109.707 299.435,110.274 L299.435,170.824 C299.435,171.392 299.897,171.853 300.465,171.853 L338.097,171.853 C338.663,171.853 339.126,171.392 339.126,170.824 L339.126,158.735 C339.126,158.166 338.663,157.706 338.097,157.706 C338.097,157.706 315.794,157.706 315.126,157.706 C315.126,157.029 315.126,110.274 315.126,110.274 C315.126,109.707 314.665,109.247 314.099,109.247 L300.465,109.247" id="Fill-5" fill="#3C4E57"></path>
                    <path d="M346.741,109.247 C346.172,109.247 345.711,109.707 345.711,110.274 L345.711,170.824 C345.711,171.392 346.172,171.853 346.741,171.853 L384.379,171.853 C384.948,171.853 385.407,171.392 385.407,170.824 L385.407,158.735 C385.407,158.166 384.948,157.706 384.379,157.706 C384.379,157.706 362.071,157.706 361.402,157.706 C361.402,157.029 361.402,110.274 361.402,110.274 C361.402,109.707 360.942,109.247 360.376,109.247 L346.741,109.247" id="Fill-6" fill="#3C4E57"></path>
                    <path d="M393.015,109.247 C392.447,109.247 391.987,109.707 391.987,110.274 L391.987,170.824 C391.987,171.392 392.447,171.853 393.015,171.853 L431.109,171.853 C431.676,171.853 432.138,171.392 432.138,170.824 L432.138,158.735 C432.138,158.166 431.676,157.706 431.109,157.706 C431.109,157.706 408.346,157.706 407.682,157.706 C407.682,157.079 407.682,147.208 407.682,146.58 C408.346,146.58 429.199,146.58 429.199,146.58 C429.768,146.58 430.23,146.122 430.23,145.553 L430.23,133.456 C430.23,132.89 429.768,132.426 429.199,132.426 C429.199,132.426 408.346,132.426 407.682,132.426 C407.682,131.816 407.682,124.012 407.682,123.398 C408.346,123.398 431.109,123.398 431.109,123.398 C431.676,123.398 432.138,122.939 432.138,122.368 L432.138,110.274 C432.138,109.707 431.676,109.247 431.109,109.247 L393.015,109.247" id="Fill-7" fill="#3C4E57"></path>
                    <path d="M440.082,127.912 L440.082,153.186 C440.082,165.444 448.76,172.759 463.29,172.759 C470.457,172.759 477.785,171.742 484.483,169.811 C484.919,169.688 485.228,169.282 485.228,168.825 L485.228,140.367 C485.228,139.802 484.768,139.339 484.199,139.339 L471.386,139.339 C470.819,139.339 470.358,139.802 470.358,140.367 C470.358,140.367 470.358,157.406 470.358,157.999 C467.331,158.358 465.562,158.43 463.29,158.43 C458.02,158.43 455.769,156.156 455.769,150.823 L455.769,130.003 C455.769,124.854 457.948,122.757 463.29,122.757 C467.757,122.757 475.806,123.42 480.866,124.203 L481.638,124.009 C481.638,124.008 482.043,123.323 482.043,123.323 L483.674,111.416 C483.748,110.873 483.388,110.37 482.85,110.266 C479.849,109.686 471.935,108.338 463.29,108.338 C448.539,108.338 440.082,115.473 440.082,127.912" id="Fill-8" fill="#3C4E57"></path>
                    <g id="Group-12" transform="translate(0.000000, 18.000000)">
                        <mask id="mask-2" fill="white">
                            <use xlink:href="#path-1"></use>
                        </mask>
                        <g id="Clip-10"></g>
                        <path d="M496.476,91.247 C495.912,91.247 495.447,91.707 495.447,92.274 L495.447,152.824 C495.447,153.392 495.912,153.853 496.476,153.853 L534.565,153.853 C535.136,153.853 535.596,153.392 535.596,152.824 L535.596,140.735 C535.596,140.166 535.136,139.706 534.565,139.706 C534.565,139.706 511.807,139.706 511.143,139.706 C511.143,139.079 511.143,129.208 511.143,128.58 C511.807,128.58 532.656,128.58 532.656,128.58 C533.225,128.58 533.683,128.122 533.683,127.553 L533.683,115.456 C533.683,114.89 533.225,114.426 532.656,114.426 C532.656,114.426 511.807,114.426 511.143,114.426 C511.143,113.816 511.143,106.012 511.143,105.398 C511.807,105.398 534.565,105.398 534.565,105.398 C535.136,105.398 535.596,104.939 535.596,104.368 L535.596,92.274 C535.596,91.707 535.136,91.247 534.565,91.247 L496.476,91.247" id="Fill-9" fill="#3C4E57" mask="url(#mask-2)"></path>
                        <path d="M168.068,161.999 C168.068,165.848 164.946,168.967 161.103,168.967 L6.966,168.967 C3.119,168.967 0,165.848 0,161.999 L0,7.868 C0,4.018 3.119,0.902 6.966,0.902 L161.103,0.902 C164.946,0.902 168.068,4.018 168.068,7.868 L168.068,161.999" id="Fill-11" fill="#3C4E57" mask="url(#mask-2)"></path>
                    </g>
                    <path d="M427.978,0.448 L417.501,7.48 C417.167,7.709 416.77,8.048 416.77,8.469 L416.77,62.763 C416.77,63.231 417.152,63.609 417.62,63.609 L428.314,63.609 C428.776,63.609 429.158,63.231 429.158,62.763 L429.158,1.139 C429.158,0.893 429.051,0.66 428.871,0.499 C428.682,0.339 428.349,0.184 427.978,0.448" id="Fill-13" fill="#8FBC3F"></path>
                    <g id="Group-17" transform="translate(438.000000, 0.000000)">
                        <mask id="mask-4" fill="white">
                            <use xlink:href="#path-3"></use>
                        </mask>
                        <g id="Clip-15"></g>
                        <path d="M1.192,19.223 C0.725,19.223 0.346,19.603 0.346,20.071 L0.346,62.763 C0.346,63.231 0.725,63.609 1.192,63.609 L11.888,63.609 C12.354,63.609 12.735,63.231 12.735,62.763 L12.735,20.071 C12.735,19.603 12.354,19.223 11.888,19.223 L1.192,19.223 Z M1.192,0.822 C0.725,0.822 0.346,1.202 0.346,1.667 L0.346,14.026 C0.346,14.492 0.725,14.871 1.192,14.871 L11.888,14.871 C12.354,14.871 12.735,14.492 12.735,14.026 L12.735,1.667 C12.735,1.202 12.354,0.822 11.888,0.822 L1.192,0.822 Z" id="Fill-14" fill="#8FBC3F" mask="url(#mask-4)"></path>
                        <path d="M26.059,14.114 C26.059,14.114 26.059,18.811 26.059,19.223 C25.643,19.223 20.068,19.223 20.068,19.223 C19.604,19.223 19.221,19.603 19.221,20.071 L19.221,28.578 C19.221,29.046 19.604,29.426 20.068,29.426 C20.068,29.426 25.643,29.426 26.059,29.426 C26.059,29.867 26.059,62.763 26.059,62.763 C26.059,63.231 26.441,63.609 26.904,63.609 L37.599,63.609 C38.067,63.609 38.449,63.231 38.449,62.763 C38.449,62.763 38.449,29.867 38.449,29.426 C38.875,29.426 47.858,29.426 47.858,29.426 C48.3,29.426 48.671,29.079 48.704,28.64 C48.704,28.64 49.316,20.123 49.316,20.116 C49.316,19.851 49.237,19.649 49.092,19.491 C48.932,19.32 48.709,19.223 48.474,19.223 C48.474,19.223 38.875,19.223 38.449,19.223 C38.449,18.816 38.449,14.725 38.449,14.725 C38.449,11.599 39.048,10.489 42.425,10.489 C44.159,10.489 46.44,10.75 48.378,11.175 C48.611,11.221 48.853,11.175 49.043,11.041 C49.237,10.904 49.365,10.694 49.397,10.462 L50.538,2.214 C50.594,1.799 50.332,1.398 49.928,1.282 C46.96,0.45 43.785,0.027 40.496,0.027 C30.78,0.027 26.059,4.635 26.059,14.114" id="Fill-16" fill="#8FBC3F" mask="url(#mask-4)"></path>
                    </g>
                    <path d="M501.972,34.801 C501.972,30.657 503.901,28.81 508.224,28.81 C512.924,28.81 513.869,31.104 513.869,34.801 C513.869,34.801 513.869,35.733 513.869,36.054 C513.443,36.054 502.393,36.054 501.972,36.054 C501.972,35.733 501.972,34.801 501.972,34.801 Z M489.585,35.854 L489.585,47.164 C489.585,58.984 495.593,64.486 508.492,64.486 C514.045,64.486 519.874,63.479 524.489,61.715 C524.877,61.562 525.098,61.161 525.013,60.752 L523.346,52.687 C523.298,52.453 523.151,52.253 522.946,52.131 C522.747,52.01 522.499,51.978 522.271,52.046 C517.859,53.38 513.673,54.026 509.459,54.026 C503.051,54.026 501.972,52.069 501.972,47.686 C501.972,47.686 501.972,46.671 501.972,46.341 C502.412,46.341 524.882,46.341 524.882,46.341 C525.346,46.341 525.73,45.96 525.73,45.495 L525.73,36.376 C525.73,28.639 523.905,18.348 508.138,18.348 C495.999,18.348 489.585,24.402 489.585,35.854 Z" id="Fill-18" fill="#8FBC3F"></path>
                    <path d="M43.974,48.193 C43.659,47.876 43.233,47.709 42.789,47.709 L26.692,47.709 C25.767,47.709 25.017,48.454 25.017,49.377 L25.017,67.149 C25.017,67.595 25.191,68.013 25.506,68.328 C25.506,68.328 49.64,92.442 52.275,95.075 C52.275,95.758 52.275,147.284 52.275,147.284 C52.275,148.206 53.017,148.958 53.944,148.958 L76.896,148.958 C77.821,148.958 78.571,148.206 78.571,147.284 L78.571,83.484 C78.571,83.038 78.4,82.616 78.081,82.298 L43.974,48.193" id="Fill-19" fill="#8FBC3F"></path>
                    <path d="M148.69,134.549 L137.219,123.076 C136.899,122.754 136.482,122.583 136.033,122.583 C136.033,122.583 116.471,122.583 114.917,122.583 C114.917,120.954 114.917,60.512 114.917,60.512 C114.917,59.828 114.521,59.226 113.888,58.966 C113.264,58.704 112.552,58.843 112.066,59.329 C112.066,59.324 112.066,59.324 112.066,59.324 L89.115,82.28 C88.803,82.591 88.63,83.015 88.63,83.458 L88.63,147.204 C88.63,148.126 89.375,148.878 90.299,148.878 L136.033,148.878 C136.482,148.878 136.899,148.704 137.219,148.385 L148.69,136.908 C149.009,136.596 149.182,136.174 149.182,135.732 C149.182,135.284 149.009,134.863 148.69,134.549" id="Fill-20" fill="#8FBC3F"></path>
                    <path d="M224.719,19.223 C224.343,19.223 224.018,19.464 223.909,19.821 C223.909,19.821 215.312,48.219 214.903,49.575 C214.494,48.216 205.98,19.826 205.98,19.826 C205.872,19.464 205.546,19.223 205.169,19.223 L194.213,19.223 C193.945,19.223 193.69,19.351 193.531,19.57 C193.371,19.785 193.324,20.071 193.405,20.326 L206.906,63.019 C207.017,63.371 207.343,63.609 207.711,63.609 C207.711,63.609 209.843,63.609 210.331,63.609 C210.158,64.171 205.324,79.784 205.324,79.784 C205.324,79.784 205.18,80.217 205.451,80.541 C205.622,80.747 205.865,80.882 206.133,80.882 L216.305,80.882 C216.671,80.882 216.995,80.649 217.109,80.302 L222.807,63.028 C222.807,63.028 222.807,63.024 236.485,20.328 C236.566,20.073 236.52,19.787 236.364,19.572 C236.203,19.351 235.948,19.223 235.678,19.223 L224.719,19.223" id="Fill-21" fill="#3C4E57"></path>
                    <path d="M250.658,47.164 L250.658,35.68 C250.658,31.051 252.698,29.159 257.702,29.159 C262.706,29.159 264.746,31.051 264.746,35.68 L264.746,47.164 C264.746,51.796 262.706,53.679 257.702,53.679 C252.698,53.679 250.658,51.796 250.658,47.164 Z M238.271,36.027 L238.271,46.81 C238.271,58.372 244.99,64.486 257.702,64.486 C270.413,64.486 277.133,58.372 277.133,46.81 L277.133,36.027 C277.133,24.463 270.413,18.348 257.702,18.348 C244.99,18.348 238.271,24.463 238.271,36.027 Z" id="Fill-22" fill="#3C4E57"></path>
                    <path d="M308.804,19.223 C308.337,19.223 307.958,19.603 307.958,20.071 C307.958,20.071 307.958,48.898 307.958,49.177 C304.136,51.108 299.922,52.453 297.667,52.453 C295.769,52.453 295.098,51.78 295.098,49.877 L295.098,20.071 C295.098,19.603 294.718,19.223 294.249,19.223 L283.552,19.223 C283.087,19.223 282.706,19.603 282.706,20.071 L282.706,51.015 C282.706,59.955 286.236,64.486 293.196,64.486 C297.92,64.486 304.237,62.898 309.754,60.342 C309.873,60.757 310.528,63.002 310.528,63.002 C310.634,63.361 310.968,63.609 311.341,63.609 L319.492,63.609 C319.962,63.609 320.342,63.231 320.342,62.763 L320.342,20.071 C320.342,19.603 319.962,19.223 319.492,19.223 L308.804,19.223" id="Fill-23" fill="#3C4E57"></path>
                    <path d="M338.23,22.494 C338.111,22.085 337.457,19.83 337.457,19.83 C337.352,19.475 337.017,19.223 336.645,19.223 L328.49,19.223 C328.023,19.223 327.639,19.603 327.639,20.071 L327.639,62.763 C327.639,63.231 328.023,63.609 328.49,63.609 L339.186,63.609 C339.651,63.609 340.033,63.231 340.033,62.763 C340.033,62.763 340.033,33.939 340.033,33.662 C343.842,31.732 348.056,30.391 350.313,30.391 C352.215,30.391 352.888,31.062 352.888,32.962 L352.888,62.763 C352.888,63.231 353.268,63.609 353.734,63.609 L364.422,63.609 C364.893,63.609 365.272,63.231 365.272,62.763 L365.272,31.819 C365.272,22.881 361.743,18.348 354.787,18.348 C350.077,18.348 343.758,19.939 338.23,22.494" id="Fill-24" fill="#3C4E57"></path>
                    <path d="M382.567,36.992 L382.567,33.75 C382.567,30.511 383.591,28.639 388.822,28.639 C394.128,28.639 395.165,30.511 395.165,33.75 L395.165,36.992 C395.165,40.637 393.507,41.925 388.822,41.925 C384.203,41.925 382.567,40.637 382.567,36.992 Z M370.796,33.382 L370.796,37.435 C370.796,42.56 372.565,46.431 376.031,48.954 C373.41,51.09 372.107,53.454 372.107,56.198 C372.107,61.971 374.59,64.405 381.272,65.184 C381.251,65.184 381.251,65.184 386.428,65.773 C386.43,65.773 393.641,66.583 393.641,66.583 C396.731,66.921 396.913,67.19 396.913,69.166 C396.913,70.952 396.539,71.735 387.59,71.735 C383.012,71.735 378.247,71.128 373.42,69.922 C373.192,69.863 372.949,69.905 372.751,70.034 C372.551,70.16 372.419,70.372 372.381,70.602 L371.07,78.585 C371.004,78.997 371.253,79.402 371.659,79.528 C376.979,81.174 383.994,81.756 388.383,81.756 C403.811,81.756 408.517,78.593 408.517,68.199 C408.517,61.143 405.563,57.8 398.648,57.017 C398.646,57.012 395.192,56.652 395.192,56.652 L386.283,55.697 C384.672,55.529 384.672,55.108 384.672,54.7 C384.672,53.904 385.406,52.951 386.633,52.135 C386.799,52.142 388.822,52.215 388.822,52.215 C403.721,52.215 406.848,44.176 406.848,37.435 L406.848,33.394 C406.848,31.228 406.434,29.132 405.664,27.297 C406.084,27.178 409.48,26.238 409.48,26.238 C409.844,26.135 410.09,25.808 410.09,25.421 L410.09,20.071 C410.09,19.603 409.71,19.223 409.242,19.223 L396.164,19.223 C393.716,18.617 391.435,18.348 388.822,18.348 C376.896,18.348 370.996,23.264 370.796,33.382 Z" id="Fill-25" fill="#3C4E57"></path>
                    <path d="M530.935,59.757 L530.213,59.757 L530.213,60.932 L530.935,60.932 C531.29,60.932 531.408,60.792 531.408,60.554 L531.408,60.158 C531.408,59.838 531.271,59.757 530.935,59.757 Z M530.893,61.445 L530.213,61.445 L530.213,62.538 L529.661,62.538 L529.661,59.24 L530.95,59.24 C531.686,59.24 531.987,59.555 531.987,60.118 L531.987,60.571 C531.987,60.891 531.889,61.147 531.51,61.35 L532.383,62.538 L531.708,62.538 L530.893,61.445 Z M530.774,63.775 C532.582,63.775 533.517,62.502 533.517,60.968 C533.517,59.438 532.582,58.164 530.774,58.164 C528.94,58.164 528.006,59.438 528.006,60.968 C528.006,62.502 528.94,63.775 530.774,63.775 Z M530.774,57.368 C532.981,57.368 534.354,58.984 534.354,60.968 C534.354,62.957 532.981,64.572 530.774,64.572 C528.563,64.572 527.169,62.957 527.169,60.968 C527.169,58.984 528.563,57.368 530.774,57.368 Z" id="Fill-26" fill="#3C4E57"></path>
                </g>
            </g>
        </g>
    </g>
</svg>